<?xml version="1.0" encoding="utf-8"?>
<!-- Generator: Adobe Illustrator 19.0.0, SVG Export Plug-In . SVG Version: 6.00 Build 0)  -->
<svg version="1.1" id="Layer_1" xmlns="http://www.w3.org/2000/svg" xmlns:xlink="http://www.w3.org/1999/xlink" x="0px" y="0px"
	 viewBox="0 0 80 49" style="enable-background:new 0 0 80 49;" xml:space="preserve">
<path id="XMLID_34_" d="M59.4,6.2c-2.7,0-44.4,0-54.4,0c-3,0-3,37,0,37c12,0,52.9,0,55.6,0c4.8,0,17.3-17.9,17.3-17.9
	S64.3,6.2,59.4,6.2z M17.5,30.2c-3.6,0-6.5-2.9-6.5-6.5c0-3.6,2.9-6.5,6.5-6.5c3.6,0,6.5,2.9,6.5,6.5C24,27.3,21.1,30.2,17.5,30.2z
	 M36.5,30.2c-3.6,0-6.5-2.9-6.5-6.5c0-3.6,2.9-6.5,6.5-6.5c3.6,0,6.5,2.9,6.5,6.5C43,27.3,40.1,30.2,36.5,30.2z M55.5,30.2
	c-3.6,0-6.5-2.9-6.5-6.5c0-3.6,2.9-6.5,6.5-6.5c3.6,0,6.5,2.9,6.5,6.5C62,27.3,59.1,30.2,55.5,30.2z"/>
</svg>
