<?xml version="1.0" encoding="utf-8"?>
<!-- Generator: Adobe Illustrator 19.0.0, SVG Export Plug-In . SVG Version: 6.00 Build 0)  -->
<svg version="1.1" id="Layer_1" xmlns="http://www.w3.org/2000/svg" xmlns:xlink="http://www.w3.org/1999/xlink" x="0px" y="0px"
	 viewBox="0 16 80 49" style="enable-background:new 0 16 80 49;" xml:space="preserve">
<style type="text/css">
	.st0{fill:#F6A355;}
</style>
<path id="XMLID_34_" class="st0" d="M59.4,22.2c-2.7,0-44.4,0-54.4,0c-3,0-3,37,0,37c12,0,52.9,0,55.6,0c4.8,0,17.3-17.9,17.3-17.9
	S64.3,22.2,59.4,22.2z M17.5,46.2c-3.6,0-6.5-2.9-6.5-6.5s2.9-6.5,6.5-6.5s6.5,2.9,6.5,6.5C24,43.3,21.1,46.2,17.5,46.2z M36.5,46.2
	c-3.6,0-6.5-2.9-6.5-6.5s2.9-6.5,6.5-6.5s6.5,2.9,6.5,6.5C43,43.3,40.1,46.2,36.5,46.2z M55.5,46.2c-3.6,0-6.5-2.9-6.5-6.5
	s2.9-6.5,6.5-6.5s6.5,2.9,6.5,6.5C62,43.3,59.1,46.2,55.5,46.2z"/>
</svg>
